<svg width="36" height="36" viewBox="0 0 36 36" fill="none" xmlns="http://www.w3.org/2000/svg">
<g filter="url(#filter0_i_59_2)">
<path d="M35 18C35 27.3888 27.3888 35 18 35C8.61116 35 1 27.3888 1 18C1 8.61116 8.61116 1 18 1C27.3888 1 35 8.61116 35 18Z" fill="#2D2B2B"/>
<path d="M7.27691 31.1922C8.19688 26.6648 12.6478 23.2308 18 23.2308C23.3521 23.2308 27.8031 26.6648 28.7231 31.1922C25.7978 33.5728 22.0656 35 18 35C13.9344 35 10.2022 33.5728 7.27691 31.1922Z" fill="white"/>
<path d="M23.2308 15.7115C23.2308 18.6606 20.8401 21.0513 17.891 21.0513C14.942 21.0513 12.5513 18.6606 12.5513 15.7115C12.5513 12.7625 14.942 10.3718 17.891 10.3718C20.8401 10.3718 23.2308 12.7625 23.2308 15.7115Z" fill="white"/>
</g>
<path d="M18 0.5C27.665 0.5 35.5 8.33502 35.5 18C35.5 23.37 33.08 28.1736 29.2725 31.3838L29.2734 31.3887L29.0391 31.5801C28.9987 31.613 28.9567 31.6442 28.916 31.6768C28.8637 31.7186 28.8116 31.7605 28.7588 31.8018C28.6242 31.9068 28.4883 32.0102 28.3506 32.1113C28.2374 32.1945 28.123 32.276 28.0078 32.3564C27.9524 32.3952 27.8967 32.4336 27.8408 32.4717C27.789 32.507 27.7367 32.5414 27.6846 32.5762C27.6216 32.6181 27.5587 32.6601 27.4951 32.7012C27.4443 32.7341 27.393 32.7664 27.3418 32.7988C27.2885 32.8325 27.2353 32.8663 27.1816 32.8994C27.1169 32.9394 27.0516 32.9784 26.9863 33.0176C26.945 33.0424 26.9038 33.0674 26.8623 33.0918C26.7958 33.1309 26.7291 33.1697 26.6621 33.208C26.475 33.3148 26.286 33.4186 26.0947 33.5186C25.98 33.5785 25.8643 33.6368 25.748 33.6943C25.7143 33.711 25.6804 33.7276 25.6465 33.7441C25.5932 33.7701 25.5399 33.7959 25.4863 33.8213C25.4111 33.857 25.3356 33.8921 25.2598 33.9268C25.204 33.9522 25.1479 33.9771 25.0918 34.002C25.0349 34.0272 24.9781 34.0525 24.9209 34.0771C24.8618 34.1026 24.8025 34.1275 24.7432 34.1523C24.6666 34.1844 24.5898 34.2161 24.5127 34.2471C24.4631 34.267 24.4131 34.2862 24.3633 34.3057C24.2971 34.3315 24.2306 34.3568 24.1641 34.3818C24.1019 34.4052 24.04 34.4294 23.9775 34.4521C23.725 34.5439 23.4697 34.6296 23.2119 34.71C23.1996 34.7138 23.1871 34.7169 23.1748 34.7207C23.0523 34.7586 22.9293 34.7958 22.8057 34.8311C22.7888 34.8359 22.7718 34.84 22.7549 34.8447C22.6471 34.8751 22.5392 34.9053 22.4307 34.9336C22.3881 34.9447 22.3454 34.955 22.3027 34.9658C22.219 34.987 22.135 35.0074 22.0508 35.0273C21.9868 35.0425 21.9226 35.0568 21.8584 35.0713C21.8087 35.0825 21.7589 35.0937 21.709 35.1045C21.6287 35.1218 21.5484 35.1391 21.4678 35.1553C21.2517 35.1987 21.0343 35.238 20.8154 35.2734C20.7139 35.2899 20.6119 35.3047 20.5098 35.3193C20.4227 35.3319 20.3356 35.3452 20.248 35.3564C20.2253 35.3594 20.2025 35.3614 20.1797 35.3643C20.0603 35.3791 19.9405 35.3928 19.8203 35.4053C19.7845 35.409 19.7487 35.4125 19.7129 35.416C19.6294 35.4241 19.5457 35.4315 19.4619 35.4385C19.3937 35.4441 19.3253 35.4492 19.2568 35.4541C19.1844 35.4592 19.1118 35.4635 19.0391 35.4678C18.962 35.4723 18.8849 35.477 18.8076 35.4805C18.7209 35.4844 18.634 35.4876 18.5469 35.4902C18.5124 35.4913 18.4779 35.4933 18.4434 35.4941C18.296 35.4978 18.1482 35.5 18 35.5C17.8514 35.5 17.7033 35.4978 17.5557 35.4941C17.5211 35.4933 17.4866 35.4913 17.4521 35.4902C17.3651 35.4876 17.2782 35.4844 17.1914 35.4805C17.1141 35.477 17.037 35.4723 16.96 35.4678C16.8873 35.4635 16.8147 35.4593 16.7422 35.4541C16.6737 35.4492 16.6054 35.4441 16.5371 35.4385C16.4533 35.4315 16.3696 35.4241 16.2861 35.416C16.2503 35.4125 16.2145 35.409 16.1787 35.4053C16.0585 35.3928 15.9388 35.3791 15.8193 35.3643C15.7966 35.3614 15.7737 35.3594 15.751 35.3564C15.6635 35.3452 15.5764 35.3319 15.4893 35.3193C15.3871 35.3047 15.2852 35.2899 15.1836 35.2734C14.9648 35.238 14.7473 35.1987 14.5312 35.1553C14.4506 35.1391 14.3703 35.1218 14.29 35.1045C14.2401 35.0937 14.1904 35.0825 14.1406 35.0713C14.0764 35.0568 14.0122 35.0425 13.9482 35.0273C13.864 35.0074 13.78 34.987 13.6963 34.9658C13.6539 34.9551 13.6116 34.9446 13.5693 34.9336C13.4605 34.9052 13.3522 34.8752 13.2441 34.8447C13.2273 34.84 13.2102 34.8359 13.1934 34.8311C13.0697 34.7958 12.9468 34.7586 12.8242 34.7207C12.8119 34.7169 12.7994 34.7138 12.7871 34.71C12.5296 34.6297 12.2747 34.5438 12.0225 34.4521C11.9597 34.4293 11.8974 34.4053 11.835 34.3818C11.7684 34.3568 11.7019 34.3315 11.6357 34.3057C11.5862 34.2863 11.5367 34.2669 11.4873 34.2471C11.4099 34.216 11.3327 34.1845 11.2559 34.1523C11.1968 34.1276 11.1379 34.1025 11.0791 34.0771C11.0216 34.0524 10.9644 34.0273 10.9072 34.002C10.8511 33.9771 10.795 33.9522 10.7393 33.9268C10.6637 33.8923 10.5886 33.8568 10.5137 33.8213C10.4598 33.7958 10.4061 33.7702 10.3525 33.7441C10.3186 33.7276 10.2848 33.7111 10.251 33.6943C10.135 33.637 10.0198 33.5784 9.90527 33.5186C9.71371 33.4184 9.52422 33.3149 9.33691 33.208C9.27012 33.1699 9.20393 33.1308 9.1377 33.0918C9.09592 33.0672 9.05425 33.0425 9.0127 33.0176C8.94742 32.9784 8.88211 32.9394 8.81738 32.8994C8.76373 32.8663 8.71049 32.8325 8.65723 32.7988C8.60601 32.7664 8.55477 32.7341 8.50391 32.7012C8.44037 32.66 8.37742 32.6181 8.31445 32.5762C8.26229 32.5414 8.20997 32.507 8.1582 32.4717C8.10252 32.4337 8.04741 32.395 7.99219 32.3564C7.87697 32.276 7.76258 32.1945 7.64941 32.1113C7.51152 32.01 7.37501 31.907 7.24023 31.8018C7.18745 31.7605 7.1353 31.7186 7.08301 31.6768C7.04252 31.6444 7.00113 31.6128 6.96094 31.5801L6.72656 31.3887V31.3838C2.91939 28.1736 0.5 23.3698 0.5 18C0.5 8.33502 8.33502 0.5 18 0.5Z" stroke="black"/>
<defs>
<filter id="filter0_i_59_2" x="0" y="0" width="36" height="40" filterUnits="userSpaceOnUse" color-interpolation-filters="sRGB">
<feFlood flood-opacity="0" result="BackgroundImageFix"/>
<feBlend mode="normal" in="SourceGraphic" in2="BackgroundImageFix" result="shape"/>
<feColorMatrix in="SourceAlpha" type="matrix" values="0 0 0 0 0 0 0 0 0 0 0 0 0 0 0 0 0 0 127 0" result="hardAlpha"/>
<feOffset dy="4"/>
<feGaussianBlur stdDeviation="2"/>
<feComposite in2="hardAlpha" operator="arithmetic" k2="-1" k3="1"/>
<feColorMatrix type="matrix" values="0 0 0 0 0 0 0 0 0 0 0 0 0 0 0 0 0 0 0.25 0"/>
<feBlend mode="normal" in2="shape" result="effect1_innerShadow_59_2"/>
</filter>
</defs>
</svg>
